<svg width="766" height="447" viewBox="0 0 766 447" fill="none" xmlns="http://www.w3.org/2000/svg">
<path d="M696.166 103.377V108.788" stroke="#B7CBF9" stroke-linejoin="round"/>
<path d="M698.872 106.082H693.461" stroke="#B7CBF9" stroke-linejoin="round"/>
<path d="M756.668 343.424V348.834" stroke="#B7CBF9" stroke-linejoin="round"/>
<path d="M759.374 346.129H753.951" stroke="#B7CBF9" stroke-linejoin="round"/>
<path d="M126.186 81.4525V86.8751" stroke="#B7CBF9" stroke-linejoin="round"/>
<path d="M128.889 84.1696H123.479" stroke="#B7CBF9" stroke-linejoin="round"/>
<path d="M309.709 64.0251V69.4477" stroke="#B7CBF9" stroke-linejoin="round"/>
<path d="M312.425 66.7423H307.002" stroke="#B7CBF9" stroke-linejoin="round"/>
<path d="M76.9805 168.132V173.543" stroke="#B7CBF9" stroke-linejoin="round"/>
<path d="M79.6863 170.837H74.2637" stroke="#B7CBF9" stroke-linejoin="round"/>
<path d="M274.188 332.602V338.013" stroke="#B7CBF9" stroke-linejoin="round"/>
<path d="M276.891 335.307H271.469" stroke="#B7CBF9" stroke-linejoin="round"/>
<path d="M431.957 124.552V129.963" stroke="#B7CBF9" stroke-linejoin="round"/>
<path d="M434.661 127.258H429.238" stroke="#B7CBF9" stroke-linejoin="round"/>
<path d="M378.456 5.67664C378.456 7.10549 377.296 8.26496 375.868 8.26496C374.439 8.26496 373.279 7.10549 373.279 5.67664C373.279 4.24779 374.439 3.08832 375.868 3.08832C377.296 3.08832 378.456 4.24779 378.456 5.67664Z" stroke="#B7CBF9" stroke-linejoin="round"/>
<path d="M759.247 245.067C759.247 246.496 758.088 247.656 756.659 247.656C755.23 247.656 754.07 246.496 754.07 245.067C754.07 243.639 755.23 242.479 756.659 242.479C758.088 242.479 759.247 243.639 759.247 245.067Z" stroke="#B7CBF9" stroke-linejoin="round"/>
<path d="M521.87 61.4486C521.87 62.8774 520.711 64.0369 519.282 64.0369C517.853 64.0369 516.693 62.8774 516.693 61.4486C516.693 60.0197 517.853 58.8603 519.282 58.8603C520.711 58.8603 521.87 60.0197 521.87 61.4486Z" stroke="#B7CBF9" stroke-linejoin="round"/>
<path d="M296.966 148.772C296.966 150.201 295.806 151.361 294.377 151.361C292.949 151.361 291.789 150.201 291.789 148.772C291.789 147.343 292.949 146.184 294.377 146.184C295.806 146.184 296.966 147.343 296.966 148.772Z" stroke="#B7CBF9" stroke-linejoin="round"/>
<path d="M631.176 106.082C632.606 106.082 633.765 104.924 633.765 103.494C633.765 102.065 632.606 100.906 631.176 100.906C629.747 100.906 628.588 102.065 628.588 103.494C628.588 104.924 629.747 106.082 631.176 106.082Z" stroke="#B7CBF9" stroke-linejoin="round"/>
<path d="M4.29731 330.201C5.7268 330.201 6.88563 329.042 6.88563 327.613C6.88563 326.183 5.7268 325.024 4.29731 325.024C2.86782 325.024 1.70898 326.183 1.70898 327.613C1.70898 329.042 2.86782 330.201 4.29731 330.201Z" stroke="#B7CBF9" stroke-linejoin="round"/>
<path d="M91.3188 137.306C92.7483 137.306 93.9071 136.148 93.9071 134.718C93.9071 133.289 92.7483 132.13 91.3188 132.13C89.8893 132.13 88.7305 133.289 88.7305 134.718C88.7305 136.148 89.8893 137.306 91.3188 137.306Z" stroke="#B7CBF9" stroke-linejoin="round"/>
<path d="M168.276 41.5969C169.705 41.5969 170.864 40.4381 170.864 39.0086C170.864 37.5791 169.705 36.4203 168.276 36.4203C166.846 36.4203 165.688 37.5791 165.688 39.0086C165.688 40.4381 166.846 41.5969 168.276 41.5969Z" stroke="#B7CBF9" stroke-linejoin="round"/>
<path d="M50.5957 96.2563H79.7934" stroke="#B7CBF9" stroke-linejoin="round"/>
<path d="M88.6934 96.2563H101.729" stroke="#B7CBF9" stroke-linejoin="round"/>
<path d="M564.57 64.8333H593.768" stroke="#B7CBF9" stroke-linejoin="round"/>
<path d="M602.668 64.8333H615.703" stroke="#B7CBF9" stroke-linejoin="round"/>
<path d="M281.414 0.5H261.574" stroke="#B7CBF9" stroke-linejoin="round"/>
<path d="M255.025 0.5H244.332" stroke="#B7CBF9" stroke-linejoin="round"/>
<path d="M446.303 39.0086H467.642" stroke="#B7CBF9" stroke-linejoin="round"/>
<path d="M666.662 176.693H688.013" stroke="#B7CBF9" stroke-linejoin="round"/>
<path d="M686.445 167.16H700.476" stroke="#B7CBF9" stroke-linejoin="round"/>
<path d="M430.599 71.1343C430.599 58.2161 420.117 47.7339 407.199 47.7339C394.281 47.7339 383.799 58.2161 383.799 71.1343C383.799 84.0525 394.281 94.5346 407.199 94.5346C411.169 94.5346 414.894 93.5391 418.173 91.794L423.643 94.5346L422.132 89.1471C427.308 84.8489 430.599 78.3839 430.599 71.1343Z" fill="white" stroke="#B7CBF9" stroke-linejoin="round"/>
<path d="M395.357 67.3746C395.357 60.8394 400.651 55.5339 407.198 55.5339C413.745 55.5339 419.039 60.8277 419.039 67.3746C419.039 69.9747 418.196 72.3873 416.767 74.3432C415.08 76.8847 410.688 79.7658 410.688 81.4874V83.455C410.688 83.8533 410.372 84.1695 409.974 84.1695H404.422C404.024 84.1695 403.708 83.8533 403.708 83.455V81.4874C403.708 79.7658 399.316 76.8964 397.63 74.3432C396.201 72.3873 395.357 69.9747 395.357 67.3746Z" fill="white" stroke="#B7CBF9" stroke-linejoin="round"/>
<path d="M408.533 83.9704C408.522 83.6776 408.311 78.9226 408.686 74.7532C408.217 74.8117 407.725 74.8352 407.187 74.8352C406.648 74.8352 406.156 74.8 405.687 74.7532C406.062 78.9226 405.851 83.6659 405.84 83.9704H405.629C405.629 83.8884 405.851 78.9695 405.465 74.7298C401.951 74.2379 400.382 72.2586 400.101 70.373C399.937 69.272 400.312 68.1828 400.991 67.7729C401.401 67.527 401.904 67.4801 402.431 67.6324C403.263 67.8666 404.059 68.5927 404.551 69.5648C405.125 70.6775 405.465 72.5396 405.652 74.5424C406.121 74.6009 406.624 74.6361 407.175 74.6361C407.725 74.6361 408.217 74.6009 408.697 74.5424C408.896 72.5279 409.224 70.6775 409.798 69.5648C410.29 68.5927 411.087 67.8783 411.918 67.6324C412.445 67.4801 412.949 67.527 413.359 67.7729C414.038 68.1828 414.413 69.272 414.249 70.373C413.968 72.2469 412.398 74.2379 408.885 74.7298C408.498 78.9695 408.721 83.8884 408.721 83.9587H408.51L408.533 83.9704ZM412.527 67.7495C412.363 67.7495 412.176 67.7729 412 67.8315C411.215 68.054 410.478 68.7333 409.997 69.6585C409.447 70.736 409.119 72.5396 408.932 74.5189C412.293 74.0388 413.804 72.1414 414.073 70.3495C414.225 69.354 413.886 68.3234 413.277 67.9603C413.054 67.8315 412.796 67.7612 412.527 67.7612V67.7495ZM401.858 67.7495C401.588 67.7495 401.331 67.8198 401.108 67.9486C400.511 68.3117 400.171 69.3306 400.312 70.3378C400.581 72.1297 402.092 74.0271 405.453 74.5072C405.266 72.5279 404.938 70.7243 404.387 69.6468C403.919 68.7333 403.169 68.054 402.385 67.8198C402.209 67.7729 402.022 67.7378 401.858 67.7378V67.7495Z" stroke="#B7CBF9" stroke-linejoin="round"/>
<path d="M410.958 82.3307H403.428V85.9263C403.428 86.5119 403.592 87.0858 403.908 87.5777C404.505 88.5146 405.536 89.0768 406.637 89.0768H407.738C408.85 89.0768 409.881 88.5146 410.467 87.5777C410.783 87.0858 410.947 86.5119 410.947 85.9263V82.3307H410.958Z" fill="white" stroke="#B7CBF9" stroke-linejoin="round"/>
<path d="M407.199 34.2653V41.3509" stroke="#B7CBF9" stroke-linejoin="round"/>
<path d="M433.259 45.0637L428.258 50.0763" stroke="#B7CBF9" stroke-linejoin="round"/>
<path d="M444.056 71.1342H436.982" stroke="#B7CBF9" stroke-linejoin="round"/>
<path d="M433.259 97.2049L428.258 92.1922" stroke="#B7CBF9" stroke-linejoin="round"/>
<path d="M407.199 108.003V100.918" stroke="#B7CBF9" stroke-linejoin="round"/>
<path d="M381.129 97.2049L386.13 92.1922" stroke="#B7CBF9" stroke-linejoin="round"/>
<path d="M370.33 71.1342H377.404" stroke="#B7CBF9" stroke-linejoin="round"/>
<path d="M381.129 45.0637L386.13 50.0763" stroke="#B7CBF9" stroke-linejoin="round"/>
<path d="M729.181 129.307H535.256C522.103 129.307 511.446 118.649 511.446 105.497C511.446 92.3445 522.103 81.6867 535.256 81.6867H607.495C624.863 81.6867 638.929 67.609 638.929 50.252C638.929 32.8833 624.852 18.8057 607.495 18.8057H161.12C150.896 18.8057 142.112 26.6643 141.631 36.8654C141.116 47.7691 149.806 56.7638 160.593 56.7638H240.163C255.647 56.7638 268.19 69.319 268.19 84.7904C268.19 100.273 255.635 112.817 240.163 112.817H87.8856C66.652 112.817 49.4473 130.022 49.4473 151.255C49.4473 172.489 66.652 189.694 87.8856 189.694H237.622C250.189 189.694 260.378 199.883 260.378 212.45C260.378 225.017 250.189 235.206 237.622 235.206H125.106C108.487 235.206 95.0182 248.675 95.0182 265.294C95.0182 281.913 108.487 295.382 125.106 295.382H643.649C660.268 295.382 673.737 281.913 673.737 265.294C673.737 248.675 660.268 235.206 643.649 235.206H512.019C499.453 235.206 489.252 225.017 489.252 212.438C489.252 199.871 499.441 189.67 512.019 189.67H729.193C745.87 189.67 759.386 176.155 759.386 159.477C759.386 142.799 745.87 129.284 729.193 129.284L729.181 129.307Z" stroke="#B7CBF9" stroke-linejoin="round"/>
<path d="M209.441 106.926C209.441 94.0779 219.853 83.666 232.701 83.666C245.549 83.666 255.961 94.0779 255.961 106.926C255.961 119.774 245.549 130.186 232.701 130.186C228.754 130.186 225.053 129.202 221.797 127.468L216.363 130.186L217.862 124.833C212.721 120.57 209.441 114.129 209.441 106.926Z" fill="white" stroke="#B7CBF9" stroke-linejoin="round"/>
<path d="M244.088 108.745C245.101 102.455 240.823 96.5347 234.533 95.5216C228.243 94.5084 222.322 98.7863 221.309 105.076C220.296 111.367 224.574 117.287 230.864 118.3C237.154 119.314 243.075 115.036 244.088 108.745Z" fill="#E8ECF9"/>
<path d="M225.137 115.616C227.163 117.384 229.81 118.462 232.714 118.462C239.086 118.462 244.251 113.297 244.251 106.926C244.251 100.554 239.086 95.3895 232.714 95.3895V106.926L225.137 115.616Z" fill="#CBD5F7"/>
<path d="M82.686 313.207C81.8662 306.496 73.457 301.964 74.1832 295.241C74.5462 291.915 77.1229 289.268 78.1886 286.082C79.9806 280.718 77.1931 275.003 74.4291 270.06C71.6651 265.13 68.7371 259.543 70.248 254.085C71.8994 248.124 82.768 244.084 87.2888 239.856C91.833 235.604 92.6177 229.549 95.3114 224.244C98.0871 218.774 104.154 213.328 110.103 211.642C113.945 210.552 117.693 211.794 119.824 215.179C121.558 217.931 122.167 221.269 122.132 224.525C122.085 229.116 120.82 233.683 118.489 237.63C115.713 242.338 111.462 246.239 109.729 251.415C107.773 257.248 106.496 262.553 108.3 269.592C111.591 282.452 107.023 294.456 103.135 296.037C92.1492 300.488 87.8041 301.718 82.6977 313.195" fill="white"/>
<path d="M82.686 313.207C81.8662 306.496 73.457 301.964 74.1832 295.241C74.5462 291.915 77.1229 289.268 78.1886 286.082C79.9806 280.718 77.1931 275.003 74.4291 270.06C71.6651 265.13 68.7371 259.543 70.248 254.085C71.8994 248.124 82.768 244.084 87.2888 239.856C91.833 235.604 92.6177 229.549 95.3114 224.244C98.0871 218.774 104.154 213.328 110.103 211.642C113.945 210.552 117.693 211.794 119.824 215.179C121.558 217.931 122.167 221.269 122.132 224.525C122.085 229.116 120.82 233.683 118.489 237.63C115.713 242.338 111.462 246.239 109.729 251.415C107.773 257.248 106.496 262.553 108.3 269.592C111.591 282.452 107.023 294.456 103.135 296.037C92.1492 300.488 87.8041 301.718 82.6977 313.195" stroke="#B7CBF9" stroke-linejoin="round"/>
<path d="M110.058 219.231C106.955 223.635 101.802 234.913 99.9628 239.984C86.3536 277.498 79.5373 317.458 79.9706 357.361" stroke="#B7CBF9" stroke-linejoin="round"/>
<path d="M54.3202 343.611C51.7436 338.458 47.3751 335.424 43.1354 333.164C38.6146 330.763 33.801 327.437 31.9974 322.424C31.4001 320.773 31.1659 318.993 30.346 317.447C28.9757 314.847 26.2234 313.301 23.5297 312.13C20.836 310.958 17.9549 309.975 15.7999 307.984C13.8557 306.192 12.6377 303.65 12.462 301.015C12.2863 298.45 13.0476 295.792 12.2161 293.367C11.2908 290.662 8.66735 288.999 6.57093 287.043C2.44835 283.201 -0.128267 276.771 0.633005 271.15C1.69879 263.256 9.2061 262.565 15.5422 265.235C19.4891 266.898 23.0261 269.463 27.0784 270.834C30.5568 272.016 34.3164 272.297 37.6425 273.832C41.5192 275.624 44.5642 279.114 45.794 283.201C46.7544 286.375 46.6607 289.772 47.4454 292.981C48.0427 295.44 49.167 297.771 50.713 299.785C55.0932 305.489 59.5554 311.743 59.9068 319.286C60.2933 327.636 58.3374 336.268 54.3437 343.611" fill="white"/>
<path d="M54.3202 343.611C51.7436 338.458 47.3751 335.425 43.1354 333.164C38.6146 330.763 33.801 327.437 31.9974 322.424C31.4001 320.773 31.1659 318.993 30.346 317.447C28.9757 314.847 26.2234 313.301 23.5297 312.13C20.836 310.958 17.9549 309.975 15.7999 307.984C13.8557 306.192 12.6377 303.65 12.462 301.015C12.2863 298.45 13.0476 295.792 12.2161 293.367C11.2908 290.662 8.66735 288.999 6.57093 287.043C2.44835 283.201 -0.128267 276.771 0.633005 271.15C1.69879 263.256 9.2061 262.565 15.5422 265.235C19.4891 266.898 23.0261 269.463 27.0784 270.834C30.5568 272.016 34.3164 272.297 37.6425 273.832C41.5192 275.624 44.5642 279.114 45.794 283.201C46.7544 286.375 46.6607 289.772 47.4454 292.981C48.0427 295.44 49.167 297.771 50.713 299.785C55.0932 305.489 59.5554 311.743 59.9068 319.286C60.2933 327.636 58.3374 336.268 54.3437 343.611" stroke="#B7CBF9" stroke-linejoin="round"/>
<path d="M11.1152 272.473C40.8634 292.723 55.3041 331.7 57.7402 369.014" stroke="#B7CBF9" stroke-linejoin="round"/>
<path d="M13.8672 305.583C13.8672 305.583 29.1395 305.594 42.0342 308.862" stroke="#B7CBF9" stroke-linejoin="round"/>
<path d="M35.9667 274.909C39.1289 286.445 37.5947 300.933 37.5947 300.933C37.5947 300.933 26.0702 298.38 12.5195 297.911" stroke="#B7CBF9" stroke-linejoin="round"/>
<path d="M3.01172 282.44C3.01172 282.44 15.8948 282.065 24.1282 283.436" stroke="#B7CBF9" stroke-linejoin="round"/>
<path d="M31.4805 320.749C31.4805 320.749 41.2599 321.417 48.7789 324.556C48.7789 324.556 54.0141 310.092 50.969 295.194" stroke="#B7CBF9" stroke-linejoin="round"/>
<path d="M70.2722 327.168C79.1967 320.304 87.7463 309.857 88.9175 298.649C89.4211 293.8 88.8824 288.706 87.2779 283.974C85.6616 279.184 82.1246 275.003 81.0706 270.107C79.1147 261.066 86.0481 251.357 80.3093 242.936C78.3417 240.055 75.1912 238.251 72.6849 235.827C66.9109 230.228 67.0515 221.597 62.0973 216.151C57.0612 210.611 48.0197 207.226 40.6646 207.461C32.9113 207.718 24.5725 213.258 24.6193 221.011C24.6545 227.148 29.6672 231.973 32.1149 237.607C34.2699 242.549 34.387 248.335 32.4546 253.359C30.1122 259.438 24.8419 265.469 27.1491 271.56C29.3392 277.322 39.7394 281.269 43.3466 285.731C50.2449 294.257 38.4628 302.807 49.2377 309.084C54.4495 312.118 67.0866 315.069 70.2839 327.168" fill="white"/>
<path d="M70.2722 327.168C79.1967 320.304 87.7463 309.857 88.9175 298.649C89.4211 293.8 88.8824 288.706 87.2779 283.974C85.6616 279.184 82.1246 275.003 81.0706 270.107C79.1147 261.066 86.0481 251.357 80.3093 242.936C78.3417 240.055 75.1912 238.251 72.6849 235.827C66.9109 230.228 67.0515 221.597 62.0973 216.151C57.0612 210.611 48.0197 207.226 40.6646 207.461C32.9113 207.718 24.5725 213.258 24.6193 221.011C24.6545 227.148 29.6672 231.973 32.1149 237.607C34.2699 242.549 34.387 248.335 32.4546 253.359C30.1122 259.438 24.8419 265.469 27.1491 271.56C29.3392 277.322 39.7394 281.269 43.3466 285.731C50.2449 294.257 38.4628 302.807 49.2377 309.084C54.4495 312.118 67.0866 315.069 70.2839 327.168" stroke="#B7CBF9" stroke-linejoin="round"/>
<path d="M29.5371 259.368C29.5371 259.368 51.778 267.449 61.6745 274.909" stroke="#B7CBF9" stroke-linejoin="round"/>
<path d="M33.5898 248.921C33.5898 248.921 51.7432 255.655 57.974 260.304" stroke="#B7CBF9" stroke-linejoin="round"/>
<path d="M65.7846 222.51C65.7846 222.51 56.7079 236.506 54.9043 250.045" stroke="#B7CBF9" stroke-linejoin="round"/>
<path d="M28.623 231.423C28.623 231.423 43.9187 234.046 50.9693 238.45" stroke="#B7CBF9" stroke-linejoin="round"/>
<path d="M33.5898 209.112C33.5898 209.112 42.0692 215.694 47.5621 229.479C65.7975 275.261 69.8966 317.224 73.012 367.269" stroke="#B7CBF9" stroke-linejoin="round"/>
<path d="M63.7715 284.712C63.7715 284.712 67.8238 268.55 82.5222 248.921" stroke="#B7CBF9" stroke-linejoin="round"/>
<path d="M82.0072 256.838C72.0756 272.251 65.1304 292.009 65.1304 292.009C65.1304 292.009 49.8113 282.967 34.457 278.973" stroke="#B7CBF9" stroke-linejoin="round"/>
<path d="M68.4668 314.39C68.4668 314.39 77.7894 294.726 87.2761 283.974" stroke="#B7CBF9" stroke-linejoin="round"/>
<path d="M94.024 343.611C93.9069 336.174 88.4726 332.286 86.8212 326.078C85.8257 322.331 85.8257 318.173 87.641 314.741C89.4095 311.392 92.7825 308.909 93.7663 305.255C94.7618 301.53 93.0168 297.689 92.6069 293.859C91.8924 287.078 95.8862 280.051 102.093 277.205C104.612 276.045 107.411 275.542 109.847 274.23C113.852 272.075 115.972 267.952 119.626 265.458C123.807 262.612 128.679 260.679 133.634 259.731C136.351 259.215 139.197 258.981 141.879 259.801C144.537 260.609 146.962 262.588 147.688 265.27C148.882 269.709 145.31 273.879 142.113 277.181C138.904 280.484 135.543 284.935 137.171 289.245C137.686 290.591 138.635 291.716 139.244 293.016C142.3 299.645 136.585 305.173 131.034 307.902C128.106 309.342 124.978 310.443 122.332 312.352C118.291 315.257 117.787 318.817 117.19 323.408C116.64 327.659 114.543 330.634 110.62 332.438C107.34 333.96 99.388 334.968 94.024 343.634" fill="white"/>
<path d="M94.024 343.611C93.9069 336.174 88.4726 332.286 86.8212 326.078C85.8257 322.331 85.8257 318.173 87.641 314.741C89.4095 311.392 92.7825 308.909 93.7663 305.255C94.7618 301.53 93.0168 297.689 92.6069 293.859C91.8924 287.078 95.8862 280.051 102.093 277.205C104.612 276.045 107.411 275.542 109.847 274.23C113.852 272.075 115.972 267.952 119.626 265.458C123.807 262.612 128.679 260.679 133.634 259.731C136.351 259.215 139.197 258.981 141.879 259.801C144.537 260.609 146.962 262.588 147.688 265.27C148.882 269.709 145.31 273.879 142.113 277.181C138.904 280.484 135.543 284.935 137.171 289.245C137.686 290.591 138.635 291.716 139.244 293.016C142.3 299.645 136.585 305.173 131.034 307.902C128.106 309.342 124.978 310.443 122.332 312.352C118.291 315.257 117.787 318.817 117.19 323.408C116.64 327.659 114.543 330.634 110.62 332.438C107.34 333.96 99.388 334.968 94.024 343.634" stroke="#B7CBF9" stroke-linejoin="round"/>
<path d="M132.287 269.967C125.6 275.612 111.147 292.7 105.842 304.915C96.8352 325.668 92.736 342.416 92.1973 365.032" stroke="#B7CBF9" stroke-linejoin="round"/>
<path d="M92.1973 308.499C92.1973 308.499 93.673 323.15 96.8703 330.154" stroke="#B7CBF9" stroke-linejoin="round"/>
<path d="M99.7988 278.505C99.7988 278.505 101.075 298.965 104.32 308.499C104.32 308.499 120.166 297.993 139.689 294.117" stroke="#B7CBF9" stroke-linejoin="round"/>
<path d="M112.236 272.754C112.236 272.754 112.705 281.725 114.953 289.725C114.953 289.725 124.194 285.204 138.049 282.393" stroke="#B7CBF9" stroke-linejoin="round"/>
<path d="M110.551 296.237C110.551 296.237 123.785 289.233 136.774 287.078" stroke="#B7CBF9" stroke-linejoin="round"/>
<path d="M99.6914 320.749C99.6914 320.749 108.522 314.308 122.33 312.329" stroke="#B7CBF9" stroke-linejoin="round"/>
<path d="M43.8613 353.32V373.406C43.8613 417.876 56.9435 446.488 56.9435 446.488H97.4549C97.4549 446.488 110.537 417.876 110.537 373.406V353.32H43.8613Z" fill="#E8ECF9"/>
<path d="M693.589 332.801C686.457 325.622 679.617 314.683 678.68 302.936C678.282 297.865 678.715 292.524 679.992 287.57C681.28 282.557 684.114 278.177 684.958 273.047C686.515 263.572 680.987 253.418 685.567 244.599C687.136 241.577 692.102 240.172 694.104 237.63C697.7 233.063 697.431 226.258 699.621 220.754C702.97 212.333 710.033 207.133 717.259 207.449C723.454 207.718 730.13 213.516 730.095 221.632C730.06 228.062 726.066 233.11 724.11 239.012C722.389 244.189 722.295 250.244 723.841 255.503C725.715 261.862 729.931 268.187 728.081 274.558C726.336 280.601 718.02 284.724 715.127 289.397C709.611 298.333 719.027 307.281 710.407 313.851C706.238 317.025 696.131 320.117 693.577 332.789" fill="white"/>
<path d="M693.589 332.801C686.457 325.622 679.617 314.683 678.68 302.936C678.282 297.865 678.715 292.524 679.992 287.57C681.28 282.557 684.114 278.177 684.958 273.047C686.515 263.572 680.987 253.418 685.567 244.599C687.136 241.577 692.102 240.172 694.104 237.63C697.7 233.063 697.431 226.258 699.621 220.754C702.97 212.333 710.033 207.133 717.259 207.449C723.454 207.718 730.13 213.516 730.095 221.632C730.06 228.062 726.066 233.11 724.11 239.012C722.389 244.189 722.295 250.244 723.841 255.503C725.715 261.862 729.931 268.187 728.081 274.558C726.336 280.601 718.02 284.724 715.127 289.397C709.611 298.333 719.027 307.281 710.407 313.851C706.238 317.025 696.131 320.117 693.577 332.789" stroke="#B7CBF9" stroke-linejoin="round"/>
<path d="M709.025 239.914C709.025 239.914 706.882 225.708 702.35 215.694" stroke="#B7CBF9" stroke-linejoin="round"/>
<path d="M722.916 250.877C722.916 250.877 708.405 257.927 703.428 262.787" stroke="#B7CBF9" stroke-linejoin="round"/>
<path d="M698.625 223.916C698.625 223.916 704.434 237.876 705.875 252.059" stroke="#B7CBF9" stroke-linejoin="round"/>
<path d="M726.884 232.559C726.884 232.559 714.657 235.311 709.023 239.914" stroke="#B7CBF9" stroke-linejoin="round"/>
<path d="M722.915 209.194C722.915 209.194 716.134 216.092 711.754 230.51C697.172 278.446 693.905 322.389 691.41 374.788" stroke="#B7CBF9" stroke-linejoin="round"/>
<path d="M684.207 259.168C692.148 275.307 697.699 295.991 697.699 295.991C697.699 295.991 709.95 286.527 722.224 282.335" stroke="#B7CBF9" stroke-linejoin="round"/>
<path d="M695.03 319.426C695.03 319.426 687.581 298.837 679.992 287.581" stroke="#B7CBF9" stroke-linejoin="round"/>
<path d="M658.711 361.39C658.828 352.91 664.356 348.471 666.019 341.374C667.026 337.099 667.026 332.344 665.187 328.432C663.395 324.614 659.964 321.78 658.968 317.599C657.949 313.348 659.729 308.967 660.139 304.587C660.865 296.846 656.801 288.823 650.512 285.59C647.549 284.068 644.363 283.4 641.693 281.304C639.14 279.289 637.219 276.607 634.9 274.347C628.693 268.292 613.116 259.356 605.89 268.597C604.777 270.014 604.227 271.794 603.922 273.574C603.044 278.751 604.145 284.548 607.307 288.799C610.282 292.805 614.943 294.948 618.843 297.888C621.467 299.867 623.212 301.835 623.352 305.243C623.516 309.049 621.877 312.75 623.282 316.51C625.238 321.768 626.116 322.588 629.97 325.704C634.08 329.018 634.584 333.082 635.181 338.317C635.732 343.166 637.875 346.562 641.845 348.624C645.172 350.357 653.253 351.505 658.687 361.401" fill="white"/>
<path d="M658.711 361.39C658.828 352.91 664.356 348.471 666.019 341.374C667.026 337.099 667.026 332.344 665.187 328.432C663.395 324.614 659.964 321.78 658.968 317.599C657.949 313.348 659.729 308.967 660.139 304.587C660.865 296.846 656.801 288.823 650.512 285.59C647.549 284.068 644.363 283.4 641.693 281.304C639.14 279.289 637.219 276.607 634.9 274.347C628.693 268.292 613.116 259.356 605.89 268.597C604.777 270.014 604.227 271.794 603.922 273.574C603.044 278.751 604.145 284.548 607.307 288.799C610.282 292.805 614.943 294.948 618.843 297.888C621.467 299.867 623.212 301.835 623.352 305.243C623.516 309.049 621.877 312.75 623.282 316.51C625.238 321.768 626.116 322.588 629.97 325.704C634.08 329.018 634.584 333.082 635.181 338.317C635.732 343.166 637.875 346.562 641.845 348.624C645.172 350.357 653.253 351.505 658.687 361.401" stroke="#B7CBF9" stroke-linejoin="round"/>
<path d="M619.887 277.345C626.668 283.799 641.343 303.287 646.73 317.236C655.877 340.917 660.035 360.031 660.585 385.844" stroke="#B7CBF9" stroke-linejoin="round"/>
<path d="M660.573 321.323C660.573 321.323 659.086 338.048 655.83 346.035" stroke="#B7CBF9" stroke-linejoin="round"/>
<path d="M652.866 287.09C652.866 287.09 651.566 310.431 648.275 321.323" stroke="#B7CBF9" stroke-linejoin="round"/>
<path d="M640.231 280.531C640.231 280.531 639.762 290.767 637.467 299.902C637.467 299.902 628.085 294.737 614.02 291.54" stroke="#B7CBF9" stroke-linejoin="round"/>
<path d="M652.973 335.307C652.973 335.307 644.002 327.952 629.994 325.692" stroke="#B7CBF9" stroke-linejoin="round"/>
<path d="M706.565 353.519C709.458 347.816 714.049 344.618 718.476 342.299C723.184 339.84 728.255 336.35 730.352 330.74C731.043 328.901 731.382 326.886 732.296 325.165C733.83 322.284 736.699 320.691 739.499 319.52C742.298 318.36 745.261 317.412 747.568 315.268C749.629 313.348 751.011 310.525 751.328 307.527C751.644 304.622 751.023 301.542 751.995 298.825C753.084 295.803 755.837 294.058 758.062 291.962C762.442 287.839 765.417 280.671 764.948 274.206C764.293 265.141 756.727 263.9 750.168 266.547C746.081 268.198 742.345 270.904 738.163 272.227C734.58 273.363 730.75 273.445 727.283 274.991C723.254 276.795 719.987 280.589 718.499 285.169C717.351 288.717 717.269 292.606 716.297 296.225C715.56 298.989 714.295 301.589 712.62 303.779C707.865 310.01 701.81 312.282 701.037 320.855C700.182 330.353 702.911 344.888 706.553 353.496" fill="white"/>
<path d="M706.565 353.519C709.458 347.816 714.049 344.618 718.476 342.299C723.184 339.84 728.255 336.35 730.352 330.74C731.043 328.901 731.382 326.886 732.296 325.165C733.83 322.284 736.699 320.691 739.499 319.52C742.298 318.36 745.261 317.412 747.568 315.268C749.629 313.348 751.011 310.525 751.328 307.527C751.644 304.622 751.023 301.542 751.995 298.825C753.084 295.803 755.837 294.058 758.062 291.962C762.442 287.839 765.417 280.671 764.948 274.206C764.293 265.141 756.727 263.9 750.168 266.547C746.081 268.198 742.345 270.904 738.163 272.227C734.58 273.363 730.75 273.445 727.283 274.991C723.254 276.795 719.987 280.589 718.499 285.169C717.351 288.717 717.269 292.606 716.297 296.225C715.56 298.989 714.295 301.589 712.62 303.779C707.865 310.01 701.81 312.282 701.037 320.855C700.182 330.353 702.911 344.888 706.553 353.496" stroke="#B7CBF9" stroke-linejoin="round"/>
<path d="M754.233 275.108C722.974 296.365 706.214 339.898 701.705 382.284" stroke="#B7CBF9" stroke-linejoin="round"/>
<path d="M749.641 312.668C749.641 312.668 734.158 311.755 720.912 314.671" stroke="#B7CBF9" stroke-linejoin="round"/>
<path d="M728.9 276.35C725.07 289.303 725.831 305.911 725.831 305.911C725.831 305.911 737.648 303.709 751.422 304.002" stroke="#B7CBF9" stroke-linejoin="round"/>
<path d="M761.903 286.961C761.903 286.961 748.868 285.743 740.447 286.808" stroke="#B7CBF9" stroke-linejoin="round"/>
<path d="M730.962 328.866C730.962 328.866 721.007 329.03 713.23 332.145C713.23 332.145 708.744 320.585 712.633 303.791" stroke="#B7CBF9" stroke-linejoin="round"/>
<path d="M674.381 346.129C675.845 336.959 688.002 326.629 687.522 317.318C686.948 306.274 678.738 304.47 686.222 285.427C689.126 278.025 690.696 270.002 688.236 262.518C685.25 253.406 677.766 249.459 671.933 242.83C666.464 236.611 665.867 228.214 662.81 220.707C659.659 212.953 652.351 204.966 644.949 202.155C640.182 200.34 635.357 201.745 632.464 206.231C630.098 209.873 629.126 214.417 628.951 218.891C628.716 225.204 630.017 231.587 632.699 237.22C635.334 242.76 639.257 247.468 641.541 253.207C644.504 260.656 641.061 268.105 641.154 275.671C641.318 288.694 653.651 290.568 657.153 301.366C658.277 304.821 657.539 308.066 656.661 311.134C655.244 316.053 654.108 319.777 658.348 324.767C666.909 334.815 672.273 336.397 674.358 346.117" fill="white"/>
<path d="M674.381 346.129C675.845 336.959 688.002 326.629 687.522 317.318C686.948 306.274 678.738 304.47 686.222 285.427C689.126 278.025 690.696 270.002 688.236 262.518C685.25 253.406 677.766 249.459 671.933 242.83C666.464 236.611 665.867 228.214 662.81 220.707C659.659 212.953 652.351 204.966 644.949 202.155C640.182 200.34 635.357 201.745 632.464 206.231C630.098 209.873 629.126 214.417 628.951 218.891C628.716 225.204 630.017 231.587 632.699 237.22C635.334 242.76 639.257 247.468 641.541 253.207C644.504 260.656 641.061 268.105 641.154 275.671C641.318 288.694 653.651 290.568 657.153 301.366C658.277 304.821 657.539 308.066 656.661 311.134C655.244 316.053 654.108 319.777 658.348 324.767C666.909 334.815 672.273 336.397 674.358 346.117" stroke="#B7CBF9" stroke-linejoin="round"/>
<path d="M641.133 210.787C647.246 219.934 655.738 237.384 659.954 253.16C674.09 306.075 676.749 350.193 673.68 405.04" stroke="#B7CBF9" stroke-linejoin="round"/>
<path d="M628.963 226.129C628.963 226.129 643.204 228.999 655.209 238.86C655.209 238.86 659.449 224.923 657.434 211.794" stroke="#B7CBF9" stroke-linejoin="round"/>
<path d="M631.902 235.37C631.902 235.37 648.967 241.308 658.336 247.667" stroke="#B7CBF9" stroke-linejoin="round"/>
<path d="M642.596 263.092C642.596 263.092 658.231 268.924 665.083 274.207C671.255 261.019 671.946 242.83 671.946 242.83" stroke="#B7CBF9" stroke-linejoin="round"/>
<path d="M645.43 286.738C645.43 286.738 656.474 288.718 669.322 296.389C669.322 296.389 684.208 278.739 684.793 255.889" stroke="#B7CBF9" stroke-linejoin="round"/>
<path d="M670.305 302.69C670.305 302.69 686.245 285.731 689.137 265.961" stroke="#B7CBF9" stroke-linejoin="round"/>
<path d="M656.686 311.134C656.686 311.134 667.215 315.28 672.497 320.105" stroke="#B7CBF9" stroke-linejoin="round"/>
<path d="M720.303 367.597V384.603C720.303 422.256 705.547 446.488 705.547 446.488H659.847C659.847 446.488 645.09 422.256 645.09 384.603V367.597H720.315H720.303Z" fill="#E8ECF9"/>
<path d="M26.6445 445.903H720.737" stroke="#C3C3E2" stroke-miterlimit="10"/>
<path d="M581.39 395.296L579.012 430.9L579.317 442.096L535.409 441.874C534.332 441.874 533.477 440.995 533.477 439.918C533.477 439.11 533.98 438.395 534.73 438.114L553.668 429.412L554.312 392.368" fill="#FFCBC2"/>
<path d="M531.557 441.405C532.002 440 532.833 438.419 533.665 438.067L553.739 429.424C564.807 433.91 579.13 430.478 579.13 430.478L581.683 445.598C581.683 446.102 581.273 446.5 580.77 446.5H531.884C530.901 446.5 531.533 441.464 531.545 441.417L531.557 441.405Z" fill="#748EED"/>
<path d="M549.393 430.279C550.517 431.743 551.466 433.347 552.227 435.034" stroke="#616BE5" stroke-width="0.75" stroke-miterlimit="10"/>
<path d="M546.863 431.79C548.034 433.406 548.491 434.331 549.194 435.83" stroke="#616BE5" stroke-width="0.75" stroke-miterlimit="10"/>
<path d="M544.719 432.902C545.515 433.968 546.288 435.432 546.897 436.615" stroke="#616BE5" stroke-width="0.75" stroke-miterlimit="10"/>
<path d="M581.426 443.232L531.346 442.975" stroke="#616BE5" stroke-width="0.75" stroke-miterlimit="10"/>
<path d="M580.032 435.842C580.032 435.842 568.261 436.076 567.254 443.174" stroke="#616BE5" stroke-width="0.75" stroke-miterlimit="10"/>
<path d="M537.775 436.299C537.775 436.299 541.02 440.913 541.664 443.033" stroke="#616BE5" stroke-width="0.75" stroke-miterlimit="10"/>
<path d="M547.907 241.472C547.907 241.472 546.736 338.868 550.718 424.048H583.815C583.815 424.048 588.289 312.329 588.032 271.981C589.46 264.673 591.604 254.343 590.292 242.584" fill="#D7E0F9"/>
<path d="M577.959 424.037C577.959 424.037 582.433 312.317 582.175 271.97" stroke="#858FE8" stroke-width="0.75" stroke-miterlimit="10"/>
<path d="M628.835 387.706L637.877 422.221L640.301 433.16L597.155 441.3C596.101 441.499 595.082 440.808 594.883 439.754C594.731 438.969 595.082 438.161 595.773 437.739L612.708 425.582L601.687 389.978" fill="#FFCBC2"/>
<path d="M593.277 441.557C593.453 440.093 593.957 438.383 594.706 437.88L612.778 425.571C624.501 427.866 637.911 421.776 637.911 421.776L643.299 436.135C643.392 436.627 643.064 437.095 642.573 437.189L594.577 446.488C593.605 446.675 593.277 441.604 593.277 441.557Z" fill="#93A5F9"/>
<path d="M608.68 427.245C610.062 428.475 611.303 429.857 612.369 431.368" stroke="#4646D3" stroke-width="0.75" stroke-miterlimit="10"/>
<path d="M606.477 429.213C607.929 430.572 608.561 431.403 609.533 432.738" stroke="#4646D3" stroke-width="0.75" stroke-miterlimit="10"/>
<path d="M604.592 430.701C605.576 431.591 606.618 432.891 607.438 433.921" stroke="#4646D3" stroke-width="0.75" stroke-miterlimit="10"/>
<path d="M642.596 433.863L593.383 443.139" stroke="#4646D3" stroke-width="0.75" stroke-miterlimit="10"/>
<path d="M639.822 426.871C639.822 426.871 628.321 429.342 628.672 436.498" stroke="#4646D3" stroke-width="0.75" stroke-miterlimit="10"/>
<path d="M598.42 435.35C598.42 435.35 602.484 439.262 603.515 441.218" stroke="#4646D3" stroke-width="0.75" stroke-miterlimit="10"/>
<path d="M579.738 241.472C579.738 241.472 576.869 293.613 584.071 338.317C589.494 371.93 604.497 421.53 604.497 421.53L638.684 414.117C638.684 414.117 627.113 365.477 622.522 339.488C617.813 312.809 619.125 288.144 619.933 273.129C619.98 272.356 620.074 271.606 620.214 270.845C621.632 263.619 623.494 253.746 622.252 242.584" fill="#E8EEFE"/>
<path d="M634.491 415.018C634.491 415.018 622.428 365.477 617.849 339.488C613.141 312.809 614.452 288.144 615.261 273.129C615.307 272.356 615.401 271.606 615.542 270.845C616.959 263.619 618.821 253.746 617.58 242.584" stroke="#858FE8" stroke-width="0.75" stroke-miterlimit="10"/>
<path d="M579.74 241.472C579.74 241.472 579.459 298.86 582.375 331.501C582.996 338.399 584.413 346.609 585.654 351.493" stroke="#858FE8" stroke-width="0.75" stroke-miterlimit="10"/>
<path d="M602.893 246.098C602.893 246.098 607.027 253.629 617.579 257.892" stroke="#858FE8" stroke-width="0.75" stroke-miterlimit="10"/>
<path d="M547.471 255.749C547.471 255.749 558.562 252.633 561.174 244.306" stroke="#858FE8" stroke-width="0.75" stroke-miterlimit="10"/>
<path d="M550.414 417.244H584.086" stroke="#858FE8" stroke-width="0.75" stroke-miterlimit="10"/>
<path d="M602.893 415.557L637.232 408.296" stroke="#858FE8" stroke-width="0.75" stroke-miterlimit="10"/>
<path d="M570.204 132.071L569.01 142.799C569.01 142.799 569.958 147.414 576.587 148.152C584.61 149.042 588.838 142.237 588.838 142.237L586.449 130.478" fill="#A34D41"/>
<path d="M567.312 112.102C565.719 112.442 564.068 113.449 563.752 115.042C563.588 115.874 563.798 116.752 563.564 117.572C563.213 118.778 561.995 119.528 561.456 120.664C561.081 121.472 561.081 122.421 561.315 123.287C561.55 124.154 561.995 124.939 562.475 125.688C563.178 126.777 563.986 127.843 565.098 128.522C566.211 129.19 567.675 129.401 568.799 128.757C569.303 128.464 569.701 128.019 570.064 127.562C571.235 126.016 571.95 124.131 572.09 122.198" fill="#212237"/>
<path d="M565.72 117.267C565.72 117.267 561 132.259 567.7 136.205C573.778 139.789 583.932 134.214 584.529 132.317C585.127 130.42 587.821 114.281 583.956 113.074C577.081 110.919 567.746 110.826 565.72 117.267Z" fill="#A34D41"/>
<path d="M568.602 131.65C568.602 131.65 569.023 134.062 571.131 133.816C572.209 133.687 573.321 132.27 572.982 130.478" fill="white"/>
<path d="M569.771 137.728C569.771 137.728 576.143 139.379 580.886 135.198" stroke="#753027" stroke-width="0.75" stroke-miterlimit="10"/>
<path d="M564.256 111.247C563.307 109.795 562.967 107.921 563.506 106.282C563.986 104.818 565.099 103.623 566.422 102.85C567.922 101.972 569.936 101.257 571.646 101.796C573.133 102.264 574.141 103.67 575.675 104.033C576.53 104.232 577.42 104.045 578.287 104.01C580.16 103.928 582.21 104.689 583.077 106.352C583.651 107.453 583.674 108.847 584.494 109.783C585.267 110.674 586.532 110.896 587.574 111.447C590.525 113.004 592.739 117.42 591.603 120.64C591.31 121.472 590.83 122.221 590.502 123.041C589.354 125.981 590.338 131.837 585.946 132.469C585.243 132.575 584.47 132.657 583.861 132.27C583.276 131.884 583.03 131.146 582.901 130.455C582.761 129.635 582.667 128.71 582.784 127.878C582.913 126.988 583.217 126.321 582.585 125.501C582.222 125.032 581.683 124.728 581.367 124.224C580.453 122.784 581.636 120.898 580.805 119.446C579.926 117.912 578.251 116.717 576.6 116.155C574.375 115.405 571.962 115.85 569.807 115.042C567.816 114.293 565.778 113.332 564.478 111.587C564.396 111.482 564.314 111.365 564.244 111.247H564.256Z" fill="#212237"/>
<path d="M580.933 127.047C581.507 125.641 582.502 123.943 584.06 124.892C584.61 125.231 584.915 125.958 585.137 126.649C585.852 128.979 584.189 132.563 581.905 132.235C580.792 132.071 580.172 130.748 579.715 129.659" fill="#A34D41"/>
<path d="M568.835 122.655C568.835 122.655 566.235 126.801 566.504 127.937C566.773 129.073 569.49 128.452 569.49 128.452" stroke="#753027" stroke-width="0.75" stroke-miterlimit="10"/>
<path d="M565.838 121.425C565.72 121.73 565.615 122.057 565.533 122.374C565.381 122.948 566.271 123.194 566.423 122.62C566.505 122.292 566.575 121.964 566.622 121.636C566.693 121.121 566.037 120.933 565.849 121.425H565.838Z" fill="#212237"/>
<path d="M568.157 119.621C568.157 119.621 566.997 118.111 565.369 119.34" stroke="#212237" stroke-width="0.5" stroke-linecap="round" stroke-linejoin="round"/>
<path d="M574.303 123.264C574.198 123.58 574.116 123.896 574.046 124.224C573.929 124.81 574.819 125.056 574.936 124.47C575.006 124.107 575.065 123.732 575.088 123.369C575.123 122.901 574.432 122.854 574.292 123.264H574.303Z" fill="#212237"/>
<path d="M573.859 120.383C573.859 120.383 575.663 119.739 577.572 121.847" stroke="#212237" stroke-width="0.5" stroke-linecap="round" stroke-linejoin="round"/>
<path d="M536.392 148.07C536.392 148.07 516.974 155.155 510.638 154.23C498.363 152.438 468.44 142.811 468.44 142.811L458.73 156.28C458.73 156.28 491.91 176.541 508.834 177.818C523.696 178.942 549.884 170.076 549.884 170.076" fill="#A34D41"/>
<path d="M569.011 142.799C564.103 141.394 556.092 142.343 545.751 144.275C537.845 145.751 527.023 149.58 527.023 149.58L535.655 176.073L557.931 170.545" fill="#93A5F9"/>
<path d="M588.839 142.237C588.839 142.237 584.107 146.793 578.029 146.793C570.439 146.793 569.01 142.799 569.01 142.799C569.01 142.799 551.478 149.791 548.995 171.318C547.414 185.032 546.734 247.117 546.734 247.117H623.002C623.002 247.117 626.703 150.33 588.839 142.237Z" fill="#93A5F9"/>
<path d="M577.01 260.246L612.731 248.37L596.897 200.199L561.164 212.075L577.01 260.246Z" fill="#4936BA"/>
<path d="M588.961 204.212L568.888 210.881L568.035 208.314C567.869 207.814 568.144 207.266 568.644 207.1L586.883 201.039C587.383 200.873 587.931 201.148 588.097 201.648L588.95 204.215L588.961 204.212Z" fill="#25225B"/>
<path d="M580.243 201.382C579.728 199.836 577.96 199.028 576.285 199.578C574.61 200.129 573.673 201.839 574.188 203.385C574.704 204.931 576.472 205.739 578.147 205.188C579.822 204.638 580.759 202.928 580.243 201.382ZM577.585 203.502C576.917 203.724 576.215 203.397 576.004 202.788C575.805 202.167 576.168 201.488 576.835 201.265C577.503 201.042 578.206 201.37 578.416 201.979C578.615 202.6 578.252 203.279 577.585 203.502Z" fill="#25225B"/>
<path d="M604.58 177.982C604.58 177.982 611.01 201.558 609.651 205.376C606.454 214.359 584.213 236.084 584.213 236.084L595.445 251.966C595.445 251.966 629.198 230.123 635.253 213.586C640.161 200.199 630.276 171.329 630.276 171.329" fill="#A34D41"/>
<path d="M588.838 142.237C588.838 142.237 613.878 141.16 624.793 157.474C632.418 168.858 634.573 184.072 634.573 184.072L605.879 189.026L598.84 167.593" fill="#93A5F9"/>
<path d="M605.877 189.026L599.904 170.838" stroke="#4646D3" stroke-width="0.75" stroke-miterlimit="10"/>
<path d="M548.994 171.318C548.994 171.318 549.873 162.288 553.62 156.982" stroke="#4646D3" stroke-width="0.75" stroke-miterlimit="10"/>
<path d="M565.768 142.237C565.768 142.237 565.967 150.201 576.32 150.201C589.437 150.201 593.853 142.389 593.853 142.389" stroke="#4646D3" stroke-width="0.75" stroke-miterlimit="10"/>
<path d="M591.404 229.608C586.567 234.41 571.154 246.812 571.529 248.148C571.916 249.494 577.701 245.489 577.807 246.648C577.912 247.808 569.433 254.577 570.171 255.807C571.178 257.482 579.493 250.092 579.493 250.092C579.493 250.092 570.78 258.641 572.08 259.848C572.993 260.703 579.938 254.484 582.901 252.434C579.985 255.058 575.757 259.871 576.729 260.726C577.69 261.581 582.515 257.447 586.368 254.484C584.131 256.568 580.266 260.562 581.121 261.405C581.976 262.249 594.402 253.008 605.751 243.849" fill="#A34D41"/>
<path d="M193.772 395.296L191.465 430.9L191.16 442.096L235.068 441.874C236.145 441.874 237 440.996 237 439.918C237 439.11 236.497 438.395 235.747 438.114L216.809 429.412L220.85 392.368" fill="#FFCBBB"/>
<path d="M238.933 441.405C238.488 440 237.657 438.419 236.825 438.068L216.751 429.424C205.683 433.91 191.36 430.478 191.36 430.478L188.807 445.598C188.807 446.102 189.217 446.5 189.72 446.5H238.606C239.589 446.5 238.957 441.464 238.945 441.417L238.933 441.405Z" fill="#011E3B"/>
<path d="M221.096 430.279C219.972 431.743 219.023 433.348 218.262 435.034" stroke="#FF7383" stroke-width="0.75" stroke-miterlimit="10"/>
<path d="M223.626 431.79C222.454 433.406 221.998 434.331 221.295 435.831" stroke="#FF7383" stroke-width="0.75" stroke-miterlimit="10"/>
<path d="M225.757 432.903C224.96 433.968 224.187 435.432 223.578 436.615" stroke="#FF7383" stroke-width="0.75" stroke-miterlimit="10"/>
<path d="M189.055 443.232L239.135 442.975" stroke="#FF7383" stroke-width="0.75" stroke-miterlimit="10"/>
<path d="M190.447 435.842C190.447 435.842 202.218 436.077 203.225 443.174" stroke="#FF7383" stroke-width="0.75" stroke-miterlimit="10"/>
<path d="M232.715 436.299C232.715 436.299 229.47 440.913 228.826 443.033" stroke="#FF7383" stroke-width="0.75" stroke-miterlimit="10"/>
<path d="M214.313 242.385C219.256 301.706 222.769 424.716 222.769 424.716H184.963C184.963 424.716 181.555 348.179 176.402 286.703C159.771 259.18 161.059 229.362 159.186 225.391" fill="#FC636B"/>
<path d="M190.131 424.716C190.131 424.716 186.641 336.268 180.012 278.341" stroke="#931C33" stroke-width="0.75" stroke-miterlimit="10"/>
<path d="M133.059 395.296L136.127 430.9L135.823 442.096L179.73 441.874C180.808 441.874 181.663 440.996 181.663 439.918C181.663 439.11 181.159 438.395 180.41 438.114L161.472 429.412L160.136 392.368" fill="#FFCBBB"/>
<path d="M183.584 441.405C183.139 440 182.307 438.419 181.476 438.068L161.402 429.424C150.334 433.91 136.01 430.478 136.01 430.478L133.457 445.598C133.457 446.102 133.867 446.5 134.371 446.5H183.256C184.24 446.5 183.607 441.464 183.596 441.417L183.584 441.405Z" fill="#011E3B"/>
<path d="M165.746 430.279C164.622 431.743 163.673 433.348 162.912 435.034" stroke="#FF7383" stroke-width="0.75" stroke-miterlimit="10"/>
<path d="M168.276 431.79C167.105 433.406 166.648 434.331 165.945 435.831" stroke="#FF7383" stroke-width="0.75" stroke-miterlimit="10"/>
<path d="M170.407 432.903C169.611 433.968 168.838 435.432 168.229 436.615" stroke="#FF7383" stroke-width="0.75" stroke-miterlimit="10"/>
<path d="M133.715 443.232L183.795 442.975" stroke="#FF7383" stroke-width="0.75" stroke-miterlimit="10"/>
<path d="M135.098 435.842C135.098 435.842 146.868 436.077 147.875 443.174" stroke="#FF7383" stroke-width="0.75" stroke-miterlimit="10"/>
<path d="M177.365 436.299C177.365 436.299 174.121 440.914 173.477 443.033" stroke="#FF7383" stroke-width="0.75" stroke-miterlimit="10"/>
<path d="M134.217 237.373C133.198 249.682 133.28 264.896 135.154 279.746C131.921 345.04 132.144 424.716 132.144 424.716H169.938C169.938 424.716 180.619 283.752 184.309 236.284" fill="#FC636B"/>
<path d="M140.67 237.373C139.651 249.682 139.733 264.896 141.607 279.746C138.374 345.04 138.597 424.716 138.597 424.716" stroke="#931C33" stroke-width="0.75" stroke-miterlimit="10"/>
<path d="M178.207 312.797C178.207 312.797 183.958 261.979 184.414 245.337" stroke="#931C33" stroke-width="0.75" stroke-miterlimit="10"/>
<path d="M140.248 263.619C140.248 263.619 151.117 264.462 157.113 249.061" stroke="#931C33" stroke-width="0.75" stroke-miterlimit="10"/>
<path d="M183.209 263.467C183.209 263.467 186.535 262.553 186.887 261.37C187.238 260.187 188.269 246.157 188.269 246.157" stroke="#931C33" stroke-width="0.75" stroke-miterlimit="10"/>
<path d="M202.147 249.061C202.147 249.061 201.994 261.546 215.861 263.455" stroke="#931C33" stroke-width="0.75" stroke-miterlimit="10"/>
<path d="M171.976 128.3L167.842 144.697C167.842 144.697 183.231 154.663 189.93 144.978L188.982 133.629L171.964 128.288L171.976 128.3Z" fill="#FFCBBB"/>
<path d="M191.676 114C191.676 114 198.492 130.104 192.309 135.233C189.381 137.669 181.733 138.419 178.371 135.725C175.877 133.734 172.188 121.413 173.593 119.247C178.992 111.002 191.664 113.988 191.664 113.988L191.676 114Z" fill="#FFCBBB"/>
<path d="M188.457 121.554C188.457 121.554 191.561 125.337 191.432 126.496C191.303 127.656 188.621 128.089 188.621 128.089" stroke="#F7A794" stroke-width="0.5" stroke-miterlimit="10"/>
<path d="M191.724 129.167L184.475 131.005C184.475 131.005 186.302 134.648 190.213 133.371C193.001 132.458 191.724 129.167 191.724 129.167Z" fill="white"/>
<path d="M190.518 120.219C190.6 120.535 190.706 120.851 190.834 121.156C191.057 121.706 191.947 121.46 191.725 120.91C191.584 120.57 191.432 120.231 191.256 119.903C191.034 119.504 190.401 119.774 190.518 120.207V120.219Z" fill="#212237"/>
<path d="M188.75 118.462C188.75 118.462 189.71 116.822 191.479 117.83" stroke="#212237" stroke-width="0.5" stroke-linecap="round" stroke-linejoin="round"/>
<path d="M182.343 123.112C182.414 123.44 182.496 123.756 182.601 124.072C182.789 124.634 183.679 124.388 183.491 123.826C183.374 123.475 183.234 123.135 183.07 122.795C182.859 122.362 182.25 122.678 182.332 123.1L182.343 123.112Z" fill="#212237"/>
<path d="M183.185 119.938C183.185 119.938 181.312 119.516 179.684 121.858" stroke="#212237" stroke-width="0.5" stroke-linecap="round" stroke-linejoin="round"/>
<path d="M167.34 125.887C167.199 125.313 167.047 124.751 166.836 124.177C166.344 122.819 165.606 121.624 165.068 120.289C164.002 117.619 164.892 114.304 167.141 112.524C167.539 112.208 167.972 111.939 168.335 111.564C169.132 110.744 169.413 109.561 169.869 108.519C170.244 107.664 170.795 106.832 171.626 106.399C173.524 105.392 176.053 106.762 177.951 105.743C178.361 105.52 178.712 105.204 179.075 104.923C181.792 102.862 184.884 103.342 187.847 104.42C189.229 104.923 189.686 105.474 190.845 106.364C192.11 107.347 193.855 107.277 195.12 108.238C196.455 109.245 196.783 111.095 196.807 112.77C196.807 113.379 196.783 114 196.526 114.55C196.198 115.253 195.53 115.745 194.816 116.073C193.118 116.846 191.209 116.553 189.405 116.412C187.648 116.284 185.599 115.042 183.877 115.686C182.202 116.319 181.769 118.38 179.696 118.532C178.876 118.591 177.892 118.45 177.4 119.106C176.85 119.844 177.143 121.074 176.709 121.929C176.299 122.737 175.585 123.463 175.058 124.213C174.015 125.7 172.528 126.719 173.055 128.651C173.418 129.998 174.917 132.153 174.297 133.582C173.887 134.519 171.825 134.507 170.256 133.313C168.64 132.083 168.16 129.752 167.773 127.878C167.633 127.199 167.504 126.532 167.34 125.876V125.887Z" fill="#212237"/>
<path d="M174.742 126.215C173.207 123.732 171.72 123.92 170.783 125.079C169.53 126.625 171.251 130.326 172.165 131.041C174.027 132.469 175.667 132.528 176.007 130.923" fill="#FFCBBB"/>
<path d="M189.207 137.424C183.503 138.232 178.408 135.081 178.408 135.081" stroke="#F7A794" stroke-width="0.75" stroke-miterlimit="10"/>
<path d="M192.016 123.159C193.698 123.159 195.061 121.795 195.061 120.113C195.061 118.432 193.698 117.068 192.016 117.068C190.334 117.068 188.971 118.432 188.971 120.113C188.971 121.795 190.334 123.159 192.016 123.159Z" stroke="#212237" stroke-width="0.75" stroke-miterlimit="10"/>
<path d="M186.229 123.943C186.229 125.63 184.87 126.988 183.184 126.988C181.497 126.988 180.139 125.63 180.139 123.943C180.139 122.257 181.497 120.898 183.184 120.898C184.87 120.898 186.229 122.257 186.229 123.943Z" stroke="#212237" stroke-width="0.75" stroke-miterlimit="10"/>
<path d="M186.078 123.006L189.205 121.273" stroke="#212237" stroke-width="0.75" stroke-miterlimit="10"/>
<path d="M180.715 125.723L173.723 124.341" stroke="#212237" stroke-width="0.75" stroke-miterlimit="10"/>
<path d="M168.628 142.237C168.628 142.237 171.193 146.547 181.089 146.91C188.678 147.191 189.943 144.708 189.943 144.708C189.943 144.708 206.492 147.765 208.39 188.312C210.263 228.437 209.127 248.3 209.127 248.3H134.464C134.464 248.3 130.763 150.342 168.628 142.249V142.237Z" fill="#4936BA"/>
<path d="M164.26 143.654C164.26 143.654 166.989 150.529 182.729 150.635C192.977 150.705 196.795 147.144 196.795 147.144" stroke="#746FEF" stroke-width="0.75" stroke-miterlimit="10"/>
<path d="M244.122 232.278C248.28 237.677 262.884 251.345 262.322 252.633C261.76 253.91 256.56 249.167 256.302 250.303C256.045 251.439 263.552 259.274 262.65 260.398C261.432 261.921 254.171 253.488 254.171 253.488C254.171 253.488 261.666 263.127 260.214 264.146C259.195 264.872 253.14 257.775 250.482 255.35C253.023 258.337 256.572 263.666 255.494 264.404C254.428 265.13 250.2 260.387 246.769 256.92C248.713 259.286 252.004 263.76 251.044 264.486C250.083 265.2 239.004 254.39 228.979 243.802" fill="#FFCBBB"/>
<path d="M248.643 246.426C248.643 246.215 248.643 246.004 248.643 245.794C249.884 247.094 251.582 247.96 253.362 248.183" stroke="#F7A794" stroke-width="0.75" stroke-miterlimit="10"/>
<path d="M241.803 246.648C243.77 249.108 245.105 252.083 245.621 255.186" stroke="#F7A794" stroke-width="0.75" stroke-miterlimit="10"/>
<path d="M200.636 210.119C210.392 229.245 236.92 253.875 236.92 253.875L253.738 239.902C253.738 239.902 234.214 216.291 228.757 203.408C223.287 190.525 224.072 177.256 216.775 161.245C209.479 145.235 189.943 144.697 189.943 144.697" fill="#93A5F9"/>
<path d="M189.943 144.697C210.638 161.925 217.08 220.426 217.08 253.875L194.897 254.378C194.897 254.378 196.678 200.574 194.897 179.422C193.117 158.271 189.932 144.697 189.932 144.697H189.943Z" fill="#93A5F9"/>
<path d="M168.629 142.237C174.836 167.137 167.856 254.027 167.856 254.027H131.76C131.76 254.027 133.153 192.516 139.454 172.711C145.755 152.907 168.629 142.225 168.629 142.225V142.237Z" fill="#93A5F9"/>
<path d="M190.575 248.827L154.854 236.951L170.688 188.78L206.421 200.656L190.575 248.827Z" fill="#E8EEFE"/>
<path d="M180.694 189.62L198.933 195.68C199.433 195.846 199.707 196.394 199.541 196.894L198.688 199.462L178.616 192.792L179.469 190.225C179.635 189.725 180.183 189.45 180.683 189.616L180.694 189.62Z" fill="#25225B"/>
<path d="M191.301 188.171C189.626 187.621 187.858 188.417 187.343 189.975C186.827 191.521 187.764 193.231 189.439 193.781C191.114 194.332 192.882 193.535 193.398 191.977C193.913 190.431 192.976 188.722 191.301 188.171ZM189.931 192.305C189.135 192.048 188.689 191.24 188.935 190.502C189.181 189.764 190.025 189.389 190.809 189.647C191.606 189.904 192.051 190.713 191.805 191.45C191.559 192.188 190.716 192.563 189.931 192.305Z" fill="#25225B"/>
<path d="M173.932 211.431C180.714 212.098 200.682 210.822 201.221 212.098C201.772 213.387 194.756 213.925 195.4 214.898C196.044 215.87 206.901 215.764 207.1 217.193C207.382 219.126 196.255 218.645 196.255 218.645C196.255 218.645 208.412 219.781 208.166 221.538C207.991 222.78 198.68 222.335 195.096 222.616C199.019 222.803 205.332 223.881 205.121 225.157C204.91 226.434 198.574 226.258 193.702 226.399C196.747 226.598 202.275 227.265 202.135 228.46C202.006 229.655 186.534 230.322 171.953 230.381" fill="#FFCBBB"/>
<path d="M168.627 142.237C168.627 142.237 141.748 142.132 133.62 156.315C121.194 177.982 109.388 224.642 121.955 229.198C133.714 233.461 180.409 231.493 180.409 231.493L180.643 209.042C180.643 209.042 148.998 207.929 146.866 204.275C144.746 200.621 154.046 181.894 154.046 181.894" fill="#93A5F9"/>
<path d="M164.623 207.191C164.623 207.191 147.266 205.54 146.352 203.42C144.806 199.824 155.066 179.797 155.066 179.797" stroke="#4646D3" stroke-width="0.75" stroke-miterlimit="10"/>
<path d="M216.214 231.938C214.399 200.492 214.083 177.08 211.998 170.838" stroke="#4646D3" stroke-width="0.75" stroke-miterlimit="10"/>
<path d="M156.388 232.278L132.613 231.646" stroke="#4646D3" stroke-width="0.75" stroke-miterlimit="10"/>
<path d="M471.495 132.071L470.301 144.029C470.301 144.029 471.249 147.414 477.878 148.151C485.901 149.042 490.129 142.237 490.129 142.237L487.74 130.478" fill="#FFCBBB"/>
<path d="M467.011 117.267C467.011 117.267 462.291 132.259 468.991 136.205C475.069 139.789 485.223 134.214 485.82 132.317C486.418 130.42 489.112 114.281 485.247 113.074C478.372 110.919 469.037 110.826 467.011 117.267Z" fill="#FFCBBB"/>
<path d="M471.062 137.728C471.062 137.728 477.434 139.379 482.177 135.198" stroke="#EF977F" stroke-miterlimit="10"/>
<path d="M463.673 109.057C462.853 101.058 473.628 104.618 478.301 107.254C479.707 108.038 486.874 108.413 488.233 109.28C489.592 110.146 490.798 111.306 491.454 112.782C492.028 114.07 492.145 115.511 492.133 116.916C492.11 119.446 491.723 121.964 491.325 124.458C490.892 127.187 490.236 132.563 486.57 132.891C485.856 132.949 485.083 132.996 484.509 132.575C483.935 132.165 483.736 131.415 483.654 130.713C483.513 129.576 483.595 128.417 483.864 127.304C483.173 127.679 482.529 128.3 481.756 128.183C481.499 128.148 481.335 127.949 481.147 127.761C480.503 127.117 479.871 121.975 481.733 119.446C477.985 118.649 475.315 119.129 471.532 118.509C468.487 118.005 466.964 116.869 465.653 115.78C463.79 114.222 463.919 111.47 463.673 109.057Z" fill="#212237"/>
<path d="M482.915 127.047C483.489 125.641 484.485 123.943 486.042 124.892C486.593 125.231 486.897 125.958 487.12 126.649C487.834 128.979 486.171 132.563 483.887 132.235C482.775 132.071 482.154 130.748 481.697 129.658" fill="#FFCBBB"/>
<path d="M470.126 122.655C470.126 122.655 467.526 126.801 467.795 127.937C468.064 129.073 470.5 128.651 470.5 128.651" stroke="#F7A794" stroke-width="0.5" stroke-miterlimit="10"/>
<path d="M467.047 130.478L473.36 130.935C473.36 130.935 473.313 134.566 470.303 134.566C467.293 134.566 467.047 130.478 467.047 130.478Z" fill="white"/>
<path d="M467.129 121.425C467.011 121.729 466.906 122.057 466.824 122.374C466.672 122.948 467.562 123.193 467.714 122.62C467.796 122.292 467.866 121.964 467.913 121.636C467.984 121.12 467.328 120.933 467.14 121.425H467.129Z" fill="#212237"/>
<path d="M469.448 119.621C469.448 119.621 468.288 118.111 466.66 119.34" stroke="#212237" stroke-width="0.5" stroke-linecap="round" stroke-linejoin="round"/>
<path d="M475.594 123.264C475.489 123.58 475.407 123.896 475.337 124.224C475.22 124.81 476.11 125.056 476.227 124.47C476.297 124.107 476.356 123.732 476.379 123.369C476.414 122.901 475.723 122.854 475.583 123.264H475.594Z" fill="#212237"/>
<path d="M475.15 120.383C475.15 120.383 476.954 119.739 478.863 121.847" stroke="#212237" stroke-width="0.5" stroke-linecap="round" stroke-linejoin="round"/>
<path d="M502.274 362.233L525.92 388.233L534.927 394.897L507.697 429.342C507.029 430.185 505.811 430.326 504.968 429.658C504.335 429.155 504.078 428.323 504.324 427.562L509.125 407.277L483.277 381.745" fill="#FFCBC2"/>
<path d="M504.967 432.094C504.136 430.876 503.398 429.248 503.632 428.382L509.183 407.242C519.537 401.292 525.662 387.894 525.662 387.894L539.142 395.19C539.541 395.495 539.599 396.069 539.295 396.467L509.183 434.975C508.574 435.748 505.002 432.141 504.967 432.106V432.094Z" fill="#FC636B"/>
<path d="M507.182 411.189C509.032 411.2 510.871 411.446 512.675 411.891" stroke="#931C33" stroke-width="0.75" stroke-miterlimit="10"/>
<path d="M506.818 414.105C508.809 414.175 509.828 414.386 511.433 414.761" stroke="#931C33" stroke-width="0.75" stroke-miterlimit="10"/>
<path d="M506.375 416.471C507.698 416.506 509.338 416.799 510.638 417.033" stroke="#931C33" stroke-width="0.75" stroke-miterlimit="10"/>
<path d="M537.118 393.925L506.07 433.219" stroke="#931C33" stroke-width="0.75" stroke-miterlimit="10"/>
<path d="M530.442 390.47C530.442 390.47 523.38 399.887 528.346 405.051" stroke="#931C33" stroke-width="0.75" stroke-miterlimit="10"/>
<path d="M504.77 424.036C504.77 424.036 510.403 424.318 512.464 425.126" stroke="#931C33" stroke-width="0.75" stroke-miterlimit="10"/>
<path d="M449.77 241.343C449.77 241.343 427.998 309.295 432.589 333.234C434.744 344.443 447.463 355.335 460.92 368.065C479.483 385.61 499.909 403.634 499.909 403.634L517.395 372.738C517.395 372.738 475.361 332.286 475.361 323.748C475.361 310.865 497.321 243.861 497.321 243.861" fill="#5151D9"/>
<path d="M483.689 275.951C483.689 275.951 468.265 316.568 470.115 325.071C471.919 333.363 513.73 374.507 513.73 374.507" stroke="#301C91" stroke-width="0.75" stroke-linejoin="round"/>
<path d="M516.787 395.296L519.094 430.9L519.399 442.096L475.491 441.874C474.414 441.874 473.559 440.995 473.559 439.918C473.559 439.11 474.062 438.395 474.812 438.114L493.75 429.412L489.709 392.368" fill="#FFCBC2"/>
<path d="M471.639 441.405C472.084 440 472.915 438.419 473.747 438.067L493.821 429.424C504.889 433.91 519.212 430.478 519.212 430.478L521.765 445.598C521.765 446.102 521.355 446.5 520.852 446.5H471.967C470.983 446.5 471.615 441.464 471.627 441.417L471.639 441.405Z" fill="#FC636B"/>
<path d="M489.475 430.279C490.599 431.743 491.548 433.347 492.309 435.034" stroke="#931C33" stroke-width="0.75" stroke-miterlimit="10"/>
<path d="M486.945 431.79C488.116 433.406 488.573 434.331 489.276 435.83" stroke="#931C33" stroke-width="0.75" stroke-miterlimit="10"/>
<path d="M484.801 432.902C485.597 433.968 486.37 435.432 486.979 436.615" stroke="#931C33" stroke-width="0.75" stroke-miterlimit="10"/>
<path d="M521.506 443.232L471.426 442.974" stroke="#931C33" stroke-width="0.75" stroke-miterlimit="10"/>
<path d="M520.114 435.842C520.114 435.842 508.343 436.076 507.336 443.174" stroke="#931C33" stroke-width="0.75" stroke-miterlimit="10"/>
<path d="M477.857 436.299C477.857 436.299 481.102 440.913 481.746 443.033" stroke="#931C33" stroke-width="0.75" stroke-miterlimit="10"/>
<path d="M459.082 246.098C458.251 254.73 446.527 254.331 446.527 254.331" stroke="#301C91" stroke-width="0.75" stroke-linejoin="round"/>
<path d="M522.384 239.446C523.649 251.872 521.904 261.089 521.365 263.537C521.259 264.005 521.213 264.474 521.224 264.954L524.059 425.126L486.288 424.915C486.288 424.915 475.044 273.551 475.372 241.331" fill="#5151D9"/>
<path d="M516.821 242.034C517.395 253.102 515.193 257.763 515.556 264.205C519.937 341.679 519.246 425.149 519.246 425.149" stroke="#301C91" stroke-width="0.75" stroke-linejoin="round"/>
<path d="M475.373 244.306C476.615 283.447 483.688 388.842 483.688 388.842" stroke="#301C91" stroke-width="0.75" stroke-linejoin="round"/>
<path d="M497.064 246.098C500.379 255.748 515.347 257.903 515.347 257.903" stroke="#301C91" stroke-width="0.75" stroke-linejoin="round"/>
<path d="M470.887 246.098C470.255 255.748 470.77 261.932 471.309 263.455C471.625 264.345 474.237 264.731 476.064 265.387" stroke="#301C91" stroke-width="0.75" stroke-linejoin="round"/>
<path d="M485.703 416.857H523.989" stroke="#301C91" stroke-width="0.75" stroke-linejoin="round"/>
<path d="M397.115 159.653C397.115 159.653 418.431 197.798 428.081 208.983C431.372 212.801 434.652 216.806 440.098 215.354C450.826 212.497 459.727 174.937 459.727 174.937L442.288 161.796L436.736 177.911L412.153 150.74" fill="#FFCBBB"/>
<path d="M490.131 142.237C490.131 142.237 485.399 146.793 479.321 146.793C471.731 146.793 470.303 144.029 470.303 144.029C470.303 144.029 452.395 149.979 450.217 176.061C446.855 216.233 446.855 247.117 446.855 247.117H524.294C524.294 247.117 527.995 150.33 490.131 142.237Z" fill="#FC636B"/>
<path d="M525.688 177.982C525.923 194.683 526.543 213.867 522.538 221.667C516.705 232.992 460.465 229.221 460.465 229.221L460.734 210.377C460.734 210.377 494.406 206.605 496.608 205.387C499.454 203.818 497.755 179.34 497.755 179.34" fill="#FFCBBB"/>
<path d="M470.302 144.029C458.543 142.237 448.19 145.235 444.126 153.445C440.554 160.648 435.307 174.082 435.307 174.082L463.626 182.596" fill="#FC636B"/>
<path d="M473.336 208.971C473.336 208.971 455.194 210.236 446.937 211.29C444.325 211.618 441.514 212.836 442.522 215.354C440.636 216.478 440.355 218.329 441.643 220.191C440.062 221.643 440.378 224.197 442.299 225.11C440.823 226.199 440.191 227.944 442.194 229.619C443.201 230.462 446.515 231.774 448.202 231.821C449.701 231.868 448.202 229.514 446.539 228.542C448.659 228.237 453.179 228.764 453.179 228.764L464.458 229.432" fill="#FFCBBB"/>
<path d="M442.287 225.122C442.627 224.771 443.06 224.525 443.493 224.325C443.927 224.115 444.395 223.974 444.864 223.857C445.332 223.763 445.812 223.681 446.304 223.681C446.784 223.681 447.265 223.705 447.745 223.81C446.808 224.056 445.894 224.22 444.993 224.431C444.091 224.63 443.201 224.853 442.275 225.134L442.287 225.122Z" fill="#EF977F"/>
<path d="M441.385 220.25C441.724 219.898 442.158 219.652 442.591 219.453C443.024 219.243 443.493 219.102 443.961 218.985C444.43 218.891 444.91 218.809 445.402 218.809C445.882 218.809 446.362 218.833 446.843 218.938C445.906 219.184 444.992 219.348 444.09 219.559C443.188 219.758 442.298 219.98 441.373 220.261L441.385 220.25Z" fill="#EF977F"/>
<path d="M442.732 215.342C443.107 215.038 443.552 214.851 443.997 214.675C444.442 214.499 444.911 214.394 445.368 214.312C445.836 214.242 446.305 214.195 446.785 214.206C447.253 214.206 447.733 214.242 448.202 214.359C447.277 214.605 446.375 214.745 445.473 214.897L442.744 215.342H442.732Z" fill="#EF977F"/>
<path d="M490.131 142.237C490.131 142.237 516.178 140.949 522.362 155.296C527.785 167.874 528.487 184.529 528.487 184.529L496.596 186.52L494.956 167.031" fill="#FC636B"/>
<path d="M496.597 186.52C495.672 175.464 495.109 168.764 495.109 168.764" stroke="#931C33" stroke-width="0.75" stroke-miterlimit="10"/>
<path d="M450.018 178.509C450.018 178.509 451.388 165.508 453.719 161.316" stroke="#931C33" stroke-width="0.75" stroke-miterlimit="10"/>
<path d="M436.734 177.9C436.734 177.9 444.125 186.52 445.015 192.165" stroke="#EF977F" stroke-width="0.75" stroke-miterlimit="10"/>
<path d="M420.748 160.226C416.415 154.968 405.476 138.489 404.106 138.747C402.735 139.004 406.19 145.142 405.031 145.142C403.871 145.142 397.91 136.077 396.61 136.697C394.853 137.54 401.447 146.512 401.447 146.512C401.447 146.512 393.729 137.049 392.417 138.231C391.48 139.063 397.043 146.559 398.812 149.686C396.47 146.535 392.066 141.886 391.117 142.776C390.18 143.654 393.846 148.831 396.458 152.953C394.596 150.541 390.965 146.313 390.04 147.097C389.126 147.87 397.184 161.093 405.265 173.238" fill="#FFCBBB"/>
<path d="M398.895 154.312C401.553 155.401 403.872 157.298 405.465 159.688" stroke="#EF977F" stroke-width="0.75" stroke-miterlimit="10"/>
<path d="M406.461 148.023C406.695 150.857 408.159 153.574 410.396 155.319" stroke="#EF977F" stroke-width="0.75" stroke-miterlimit="10"/>
<path d="M457.712 141.323C456.986 141.031 456.154 140.738 455.44 141.195C453.601 142.377 452.629 147.086 452.852 149.393C452.91 149.99 453.156 150.681 453.625 150.693C454.011 150.693 454.327 150.236 454.562 149.826C455.475 148.233 456.084 144.989 456.939 143.35" fill="#A34D41"/>
<path d="M462.011 141.487C460.078 139.941 458.356 140.468 457.642 141.077C455.792 142.635 455.253 147.695 455.745 150.037C455.874 150.646 456.201 151.314 456.717 151.232C457.138 151.173 457.419 150.634 457.63 150.166C458.438 148.35 458.743 144.884 459.492 143.022" fill="#A34D41"/>
<path d="M463.626 140.96C463.626 140.96 461.132 140.023 460.452 140.679C458.707 142.354 458.11 148.257 458.754 150.564C458.918 151.161 459.305 151.805 459.808 151.7C460.218 151.606 460.464 151.056 460.652 150.576C461.343 148.702 461.413 145.235 462.022 143.326" fill="#A34D41"/>
<path d="M461.952 150.131C462.116 150.705 462.479 151.325 462.948 151.232C463.334 151.15 463.557 150.623 463.721 150.166C464.107 149.041 464.014 143.877 465.478 144.029C465.056 144.895 464.787 145.832 464.693 146.793C464.669 147.05 464.693 147.355 464.927 147.46C465.15 147.554 465.396 147.367 465.571 147.203C466.438 146.395 467.375 145.668 468.37 145.036C468.979 144.65 470.291 144.041 470.291 144.041C470.291 144.041 467.761 141.499 465.899 141.031C464.529 140.691 462.854 140.246 462.046 141.651C460.758 143.923 461.261 147.753 461.941 150.142L461.952 150.131Z" fill="#A34D41"/>
<path d="M462.607 140.843C460.874 141.757 460.511 144.275 461.026 146.02C461.096 146.242 461.471 146.277 461.506 146.02C461.823 144.24 461.26 142.518 462.865 141.183C463.064 141.019 462.806 140.726 462.596 140.843H462.607Z" fill="#753027"/>
<path d="M460.348 140.48C458.392 141.452 457.865 144.685 458.334 146.629C458.392 146.851 458.779 146.886 458.814 146.629C459.095 144.696 458.767 142.19 460.559 140.867C460.782 140.703 460.594 140.363 460.337 140.492L460.348 140.48Z" fill="#753027"/>
<path d="M457.359 141.23C455.509 142.167 455.122 145.469 455.333 147.308C455.368 147.589 455.731 147.66 455.825 147.378C456.469 145.551 455.79 142.94 457.57 141.616C457.793 141.452 457.605 141.113 457.347 141.241L457.359 141.23Z" fill="#753027"/>
</svg>
